<?xml version="1.0" encoding="UTF-8"?>
<svg width="352px" height="158px" viewBox="0 0 352 158" version="1.1" xmlns="http://www.w3.org/2000/svg" xmlns:xlink="http://www.w3.org/1999/xlink">
    <!-- Generator: Sketch 59.1 (86144) - https://sketch.com -->
    <title>pagopa - logo - whitebg - primary color - monochrome</title>
    <desc>Created with Sketch.</desc>
    <g id="pagopa---logo---whitebg---primary-color---monochrome" stroke="none" stroke-width="1" fill="none" fill-rule="evenodd">
        <path d="M303,55 L303,104 L295.000096,104 L295.000176,97.6109197 C290.646287,101.579888 284.855911,104 278.500295,104 C270.6882,104 263.730095,100.343587 259.243951,94.6487503 C261.087756,92.0098721 262.461495,89.0199113 263.246728,85.7993922 C265.721168,91.7871784 271.618759,96 278.500295,96 C287.612884,96 295.000096,88.6126984 295.000096,79.5 C295.000096,70.3873016 287.612884,63 278.500295,63 C271.618759,63 265.721168,67.2128216 263.245829,73.2001295 C262.461495,69.9800887 261.087756,66.9901279 259.245899,64.3511149 C263.730095,58.6564129 270.6882,55 278.500295,55 C284.855911,55 290.646287,57.4201122 295.000176,61.3890803 L295.000096,55 L303,55 Z" id="Path" fill="#00B2C2" fill-rule="nonzero"></path>
        <path d="M56.9999037,55 L56.999824,61.3890803 C61.353713,57.4201122 67.1440887,55 73.499705,55 C81.3113418,55 88.2690881,58.6559836 92.7552593,64.3502466 C90.912592,66.9893711 89.538604,69.9796811 88.7532715,73.2006078 C86.2788316,67.2128216 80.381241,63 73.499705,63 C64.3871164,63 56.9999037,70.3873016 56.9999037,79.5 C56.9999037,88.6126984 64.3871164,96 73.499705,96 C80.381241,96 86.2788316,91.7871784 88.754171,85.7998705 C89.538604,89.0203189 90.912592,92.0106289 92.7548003,94.6498871 C88.2690881,100.344016 81.3113418,104 73.499705,104 C67.1440887,104 61.353713,101.579888 56.999824,97.6109197 L56.9999037,118 L49,118 L49,55 L56.9999037,55 Z" id="Path" fill="#00B2C2" fill-rule="nonzero"></path>
        <path d="M138.999087,55 L138.999087,58.7631869 C134.480319,62.3635297 131.16497,67.4097486 129.753028,73.2016063 C127.279242,67.2132904 121.381417,63 114.499543,63 C105.387015,63 97.9998509,70.3873016 97.9998509,79.5 C97.9998509,88.6126984 105.387015,96 114.499543,96 C121.381417,96 127.279242,91.7867096 129.754322,85.7988711 C131.16497,91.5902514 134.480319,96.6364703 138.999087,100.236813 L138.999087,104 L130.999236,104 L130.999315,97.6109197 C126.645455,101.579888 120.855118,104 114.499543,104 C100.968819,104 90,93.0309764 90,79.5 C90,65.9690236 100.968819,55 114.499543,55 C120.855118,55 126.645455,57.4201122 130.999315,61.3890803 L130.999236,55 L138.999087,55 Z" id="Path" fill="#00B2C2" fill-rule="nonzero"></path>
        <path d="M221,55 L221.000913,61.388175 C225.354742,57.4197442 231.14479,55 237.5,55 C251.030976,55 262,65.9690236 262,79.5 C262,93.0309764 251.030976,104 237.5,104 C231.14479,104 225.354742,101.580256 221.000913,97.611825 L221,118 L213,118 L213.000788,100.237111 C217.519238,96.6369555 220.83461,91.5909911 222.246728,85.7993922 C224.72072,91.7871784 230.618381,96 237.5,96 C246.612698,96 254,88.6126984 254,79.5 C254,70.3873016 246.612698,63 237.5,63 C230.618381,63 224.72072,67.2128216 222.24535,73.2001295 C220.83461,67.4090089 217.519238,62.3630445 213.000788,58.7628891 L213,55 L221,55 Z" id="Path" fill="#00B2C2" fill-rule="nonzero"></path>
        <path d="M180,50 L180,61.3890543 C184.353933,57.4201017 190.14436,55 196.500031,55 C210.03099,55 221,65.9690236 221,79.5 C221,93.0309764 210.03099,104 196.500031,104 C190.14436,104 184.353933,101.579898 180,97.6109457 L180,104.109529 C180,110.349352 177.504107,116.214229 173.124135,120.676045 L172.800296,121 L167.199704,115.275851 C170.175714,112.352255 171.887299,108.557791 171.994627,104.514649 L172,104.109529 L172.00008,97.7074897 C167.646138,101.684508 161.855693,104.109529 155.5,104.109529 C141.969024,104.109529 131,93.1182568 131,79.5598353 C131,66.0014138 141.969024,55.0101416 155.5,55.0101416 C161.855693,55.0101416 167.646138,57.4351626 172.00008,61.4121809 L172,50 L180,50 Z M155.5,63.0263681 C146.387302,63.0263681 139,70.4286535 139,79.5598353 C139,88.6910171 146.387302,96.0933025 155.5,96.0933025 C164.612698,96.0933025 172,88.6910171 172,79.5598353 C172,70.4286535 164.612698,63.0263681 155.5,63.0263681 Z M196.500031,63 C187.387344,63 180.000051,70.3873016 180.000051,79.5 C180.000051,88.6126984 187.387344,96 196.500031,96 C205.612718,96 213.00001,88.6126984 213.00001,79.5 C213.00001,70.3873016 205.612718,63 196.500031,63 Z" id="Shape" fill="#00B2C2" fill-rule="nonzero"></path>
    </g>
</svg>